<?xml version="1.0" encoding="UTF-8" standalone="no"?>
<svg
   width="960"
   zoomAndPan="magnify"
   viewBox="0 0 240 22.2"
   height="80"
   preserveAspectRatio="xMidYMid"
   version="1.0"
   id="svg77"
   sodipodi:docname="desktop-logo.svg"
   inkscape:version="1.4.2 (f4327f4, 2025-05-13)"
   xmlns:inkscape="http://www.inkscape.org/namespaces/inkscape"
   xmlns:sodipodi="http://sodipodi.sourceforge.net/DTD/sodipodi-0.dtd"
   xmlns="http://www.w3.org/2000/svg"
   xmlns:svg="http://www.w3.org/2000/svg">
  <sodipodi:namedview
     id="namedview77"
     pagecolor="#ffffff"
     bordercolor="#000000"
     borderopacity="0.25"
     inkscape:showpageshadow="2"
     inkscape:pageopacity="0.0"
     inkscape:pagecheckerboard="0"
     inkscape:deskcolor="#d1d1d1"
     inkscape:zoom="0.80115198"
     inkscape:cx="496.78464"
     inkscape:cy="290.20711"
     inkscape:window-width="2560"
     inkscape:window-height="1351"
     inkscape:window-x="-9"
     inkscape:window-y="-9"
     inkscape:window-maximized="1"
     inkscape:current-layer="svg77"
     showgrid="false" />
  <defs
     id="defs1">
    <g
       id="g1" />
    <clipPath
       id="01ea780111">
      <path
         d="M 5.746094,7.71875 H 24 V 24.9375 H 5.746094 Z m 0,0"
         clip-rule="nonzero"
         id="path1" />
    </clipPath>
  </defs>
  <g
     fill="#524d4e"
     fill-opacity="1"
     id="g4"
     transform="rotate(90,130.63061,127.29036)">
    <g
       transform="translate(20.307805,269.21909)"
       id="g3">
      <g
         id="g2">
        <path
           d="m -7.234375,-0.40625 c -2.082031,0 -3.847656,-0.707031 -5.296875,-2.125 -1.445312,-1.425781 -2.171875,-3.144531 -2.171875,-5.15625 0,-2.007812 0.726563,-3.71875 2.171875,-5.125 1.4375,-1.414062 3.203125,-2.125 5.296875,-2.125 2.117187,0 3.898437,0.695312 5.34375,2.078125 1.4375,1.386719 2.15625,3.109375 2.15625,5.171875 0,2.117188 -0.710937,3.859375 -2.140625,5.234375 -1.4375,1.367187 -3.222656,2.046875 -5.359375,2.046875 z m 0,-3.546875 c 0.761719,0 1.453125,-0.113281 2.078125,-0.34375 0.625,-0.238281 1.15625,-0.648437 1.59375,-1.234375 0.429688,-0.582031 0.640625,-1.300781 0.640625,-2.15625 0,-1.21875 -0.414063,-2.140625 -1.25,-2.765625 -0.84375,-0.625 -1.863281,-0.9375 -3.0625,-0.9375 -1.175781,0 -2.1875,0.320313 -3.03125,0.953125 -0.84375,0.636719 -1.265625,1.554688 -1.265625,2.75 0,1.199219 0.421875,2.121094 1.265625,2.765625 0.84375,0.648437 1.855469,0.96875 3.03125,0.96875 z m 0,0"
           id="path2" />
      </g>
    </g>
  </g>
  <g
     fill="#524d4e"
     fill-opacity="1"
     id="g7"
     transform="rotate(90,130.63061,127.29036)">
    <g
       transform="translate(20.307805,253.87466)"
       id="g6">
      <g
         id="g5">
        <path
           d="m -6.703125,-5.828125 c 0,0.585937 0.21875,1.089844 0.65625,1.515625 0.429687,0.417969 0.945313,0.625 1.546875,0.625 0.625,0 1.152344,-0.207031 1.578125,-0.625 0.429687,-0.425781 0.640625,-0.929688 0.640625,-1.515625 0,-0.28125 -0.03125,-0.546875 -0.09375,-0.796875 -0.070312,-0.25 -0.144531,-0.429688 -0.21875,-0.546875 L -2.6875,-7.328125 -0.546875,-8.375 c 0.0625,0.074219 0.140625,0.183594 0.234375,0.328125 0.085938,0.148437 0.199219,0.480469 0.34375,1 0.15625,0.523437 0.234375,1.078125 0.234375,1.671875 0,1.324219 -0.460937,2.484375 -1.390625,3.484375 -0.925781,0.992187 -2.039062,1.484375 -3.34375,1.484375 -1.300781,0 -2.421875,-0.492188 -3.359375,-1.484375 -0.9375,-1 -1.40625,-2.160156 -1.40625,-3.484375 0,-0.59375 0.074219,-1.140625 0.21875,-1.640625 0.136719,-0.5 0.273437,-0.851563 0.40625,-1.0625 L -8.40625,-8.375 l 2.125,1.046875 c -0.28125,0.386719 -0.421875,0.886719 -0.421875,1.5 z m 0,0"
           id="path4" />
      </g>
    </g>
  </g>
  <g
     fill="#524d4e"
     fill-opacity="1"
     id="g10"
     transform="rotate(90,130.63061,127.29036)">
    <g
       transform="translate(20.307805,245.28388)"
       id="g9">
      <g
         id="g8">
        <path
           d="m -4.0625,-10.125 v 6.5 c 0.636719,0 1.105469,-0.203125 1.40625,-0.609375 0.304688,-0.40625 0.453125,-0.847656 0.453125,-1.328125 0,-0.5 -0.066406,-0.894531 -0.203125,-1.1875 -0.132812,-0.289062 -0.398438,-0.625 -0.796875,-1 l 1.125,-2.25 c 1.5625,0.9375 2.34375,2.492188 2.34375,4.65625 0,1.355469 -0.460937,2.515625 -1.390625,3.484375 -0.925781,0.96875 -2.039062,1.453125 -3.34375,1.453125 -1.3125,0 -2.429688,-0.484375 -3.359375,-1.453125 -0.9375,-0.96875 -1.40625,-2.128906 -1.40625,-3.484375 0,-1.414062 0.414063,-2.570312 1.234375,-3.46875 0.824219,-0.894531 1.996094,-1.34375 3.515625,-1.34375 0.210937,0 0.351563,0.01172 0.421875,0.03125 z m -1.71875,6.421875 V -7.125 c -0.457031,0.074219 -0.8125,0.261719 -1.0625,0.5625 -0.257812,0.292969 -0.390625,0.671875 -0.390625,1.140625 0,0.511719 0.136719,0.917969 0.40625,1.21875 0.273437,0.304687 0.621094,0.46875 1.046875,0.5 z m 0,0"
           id="path7" />
      </g>
    </g>
  </g>
  <g
     fill="#524d4e"
     fill-opacity="1"
     id="g13"
     transform="rotate(90,130.63061,127.29036)">
    <g
       transform="translate(20.307805,234.73349)"
       id="g12">
      <g
         id="g11">
        <path
           d="m -1.109375,-1.65625 c -0.914063,0.835938 -2.035156,1.25 -3.359375,1.25 -1.332031,0 -2.457031,-0.414062 -3.375,-1.25 -0.925781,-0.84375 -1.390625,-1.910156 -1.390625,-3.203125 0,-1.195313 0.371094,-2.179687 1.109375,-2.953125 h -0.859375 v -3.09375 H 0 v 3.0625 h -1.015625 v 0.03125 c 0.855469,0.773438 1.28125,1.757812 1.28125,2.953125 0,1.292969 -0.457031,2.359375 -1.375,3.203125 z M -6,-4.296875 c 0.398438,0.40625 0.90625,0.609375 1.53125,0.609375 0.617188,0 1.121094,-0.191406 1.515625,-0.578125 0.386719,-0.382813 0.578125,-0.894531 0.578125,-1.53125 0,-0.601563 -0.195312,-1.097656 -0.59375,-1.484375 -0.394531,-0.394531 -0.898438,-0.59375 -1.515625,-0.59375 -0.613281,0 -1.117187,0.203125 -1.515625,0.609375 -0.394531,0.398437 -0.59375,0.886719 -0.59375,1.46875 0,0.59375 0.199219,1.09375 0.59375,1.5 z m 0,0"
           id="path10" />
      </g>
    </g>
  </g>
  <g
     fill="#524d4e"
     fill-opacity="1"
     id="g16"
     transform="rotate(90,130.63061,127.29036)">
    <g
       transform="translate(20.307805,222.78338)"
       id="g15">
      <g
         id="g14">
        <path
           d="m 0,-1.046875 h -8.984375 v -3.09375 H -8.03125 V -4.1875 c -0.800781,-0.800781 -1.203125,-1.65625 -1.203125,-2.5625 0,-0.445312 0.058594,-0.890625 0.171875,-1.328125 0.117188,-0.4375 0.296875,-0.851563 0.546875,-1.25 0.242187,-0.40625 0.585937,-0.734375 1.03125,-0.984375 0.449219,-0.25 0.96875,-0.375 1.5625,-0.375 H 0 v 3.09375 h -5.078125 c -0.46875,0 -0.875,0.152344 -1.21875,0.453125 -0.351563,0.292969 -0.53125,0.679687 -0.53125,1.15625 0,0.46875 0.183594,0.898437 0.546875,1.28125 0.367188,0.375 0.765625,0.5625 1.203125,0.5625 H 0 Z m 0,0"
           id="path13" />
      </g>
    </g>
  </g>
  <g
     fill="#524d4e"
     fill-opacity="1"
     id="g19"
     transform="rotate(90,130.63061,127.29036)">
    <g
       transform="translate(20.307805,211.2182)"
       id="g18">
      <g
         id="g17">
        <path
           d="m -13.984375,-1.34375 c -0.363281,-0.363281 -0.546875,-0.796875 -0.546875,-1.296875 0,-0.5 0.183594,-0.929687 0.546875,-1.296875 0.367187,-0.363281 0.796875,-0.546875 1.296875,-0.546875 0.5,0 0.933594,0.183594 1.296875,0.546875 0.367187,0.367188 0.546875,0.796875 0.546875,1.296875 0,0.5 -0.179688,0.933594 -0.546875,1.296875 -0.363281,0.355469 -0.796875,0.53125 -1.296875,0.53125 -0.5,0 -0.929688,-0.175781 -1.296875,-0.53125 z m 5,0.296875 H 0 v -3.09375 h -8.984375 z m 0,0"
           id="path16" />
      </g>
    </g>
  </g>
  <g
     fill="#524d4e"
     fill-opacity="1"
     id="g22"
     transform="rotate(90,130.63061,127.29036)">
    <g
       transform="translate(20.307805,205.93426)"
       id="g21">
      <g
         id="g20">
        <path
           d="m -6.703125,-5.828125 c 0,0.585937 0.21875,1.089844 0.65625,1.515625 0.429687,0.417969 0.945313,0.625 1.546875,0.625 0.625,0 1.152344,-0.207031 1.578125,-0.625 0.429687,-0.425781 0.640625,-0.929688 0.640625,-1.515625 0,-0.28125 -0.03125,-0.546875 -0.09375,-0.796875 -0.070312,-0.25 -0.144531,-0.429688 -0.21875,-0.546875 L -2.6875,-7.328125 -0.546875,-8.375 c 0.0625,0.074219 0.140625,0.183594 0.234375,0.328125 0.085938,0.148437 0.199219,0.480469 0.34375,1 0.15625,0.523437 0.234375,1.078125 0.234375,1.671875 0,1.324219 -0.460937,2.484375 -1.390625,3.484375 -0.925781,0.992187 -2.039062,1.484375 -3.34375,1.484375 -1.300781,0 -2.421875,-0.492188 -3.359375,-1.484375 -0.9375,-1 -1.40625,-2.160156 -1.40625,-3.484375 0,-0.59375 0.074219,-1.140625 0.21875,-1.640625 0.136719,-0.5 0.273437,-0.851563 0.40625,-1.0625 L -8.40625,-8.375 l 2.125,1.046875 c -0.28125,0.386719 -0.421875,0.886719 -0.421875,1.5 z m 0,0"
           id="path19" />
      </g>
    </g>
  </g>
  <g
     fill="#524d4e"
     fill-opacity="1"
     id="g25"
     transform="rotate(90,130.63061,127.29036)">
    <g
       transform="translate(20.307805,197.34348)"
       id="g24">
      <g
         id="g23" />
    </g>
  </g>
  <g
     fill="#524d4e"
     fill-opacity="1"
     id="g28"
     transform="rotate(90,130.63061,127.29036)">
    <g
       transform="translate(20.307805,192.56694)"
       id="g27">
      <g
         id="g26">
        <path
           d="m -14.4375,-7.328125 h 10.359375 c 1.417969,0 2.496094,0.390625 3.234375,1.171875 0.742188,0.773438 1.109375,1.882812 1.109375,3.328125 0,0.386719 -0.046875,0.765625 -0.140625,1.140625 -0.09375,0.367188 -0.2070312,0.679688 -0.34375,0.9375 -0.132812,0.25 -0.269531,0.480469 -0.40625,0.6875 -0.144531,0.207031 -0.265625,0.359375 -0.359375,0.453125 L -1.125,0.546875 -3.875,-0.5 c 0.65625,-0.695312 0.984375,-1.320312 0.984375,-1.875 0,-0.5 -0.164063,-0.898438 -0.5,-1.203125 -0.332031,-0.3125 -0.84375,-0.46875 -1.53125,-0.46875 H -14.4375 Z m 0,0"
           id="path25" />
      </g>
    </g>
  </g>
  <g
     fill="#524d4e"
     fill-opacity="1"
     id="g31"
     transform="rotate(90,130.63061,127.29036)">
    <g
       transform="translate(20.307805,184.36108)"
       id="g30">
      <g
         id="g29">
        <path
           d="m -8.984375,-3.96875 h 4.28125 c 0.886719,0 1.515625,-0.132812 1.890625,-0.40625 0.375,-0.269531 0.5625,-0.722656 0.5625,-1.359375 0,-0.644531 -0.1875,-1.097656 -0.5625,-1.359375 C -3.1875,-7.363281 -3.816406,-7.5 -4.703125,-7.5 h -4.28125 v -3.109375 h 5.03125 c 1.492187,0 2.570313,0.390625 3.234375,1.171875 0.65625,0.773438 0.984375,2.007812 0.984375,3.703125 0,1.6875 -0.328125,2.921875 -0.984375,3.703125 -0.664062,0.773438 -1.742188,1.15625 -3.234375,1.15625 h -5.03125 z m 0,0"
           id="path28" />
      </g>
    </g>
  </g>
  <g
     fill="#524d4e"
     fill-opacity="1"
     id="g34"
     transform="rotate(90,130.63061,127.29036)">
    <g
       transform="translate(20.307805,172.88338)"
       id="g33">
      <g
         id="g32">
        <path
           d="m -1.109375,-1.65625 c -0.914063,0.835938 -2.035156,1.25 -3.359375,1.25 -1.332031,0 -2.457031,-0.414062 -3.375,-1.25 -0.925781,-0.84375 -1.390625,-1.910156 -1.390625,-3.203125 0,-1.195313 0.371094,-2.179687 1.109375,-2.953125 h -6.921875 v -3.09375 H 0 v 3.0625 h -1.015625 v 0.03125 c 0.855469,0.773438 1.28125,1.757812 1.28125,2.953125 0,1.292969 -0.457031,2.359375 -1.375,3.203125 z M -6,-4.296875 c 0.398438,0.40625 0.90625,0.609375 1.53125,0.609375 0.617188,0 1.121094,-0.191406 1.515625,-0.578125 0.386719,-0.382813 0.578125,-0.894531 0.578125,-1.53125 0,-0.601563 -0.195312,-1.097656 -0.59375,-1.484375 -0.394531,-0.394531 -0.898438,-0.59375 -1.515625,-0.59375 -0.613281,0 -1.117187,0.203125 -1.515625,0.609375 -0.394531,0.398437 -0.59375,0.886719 -0.59375,1.46875 0,0.59375 0.199219,1.09375 0.59375,1.5 z m 0,0"
           id="path31" />
      </g>
    </g>
  </g>
  <g
     fill="#524d4e"
     fill-opacity="1"
     id="g37"
     transform="rotate(90,130.63061,127.29036)">
    <g
       transform="translate(20.307805,160.93327)"
       id="g36">
      <g
         id="g35">
        <path
           d="M 2.203125,-0.640625 0.96875,-3.1875 C 1.738281,-3.65625 2.125,-4.46875 2.125,-5.625 2.125,-6.15625 1.945312,-6.648438 1.59375,-7.109375 1.25,-7.578125 0.722656,-7.8125 0.015625,-7.8125 h -0.65625 c 0.6054688,0.554688 0.90625,1.539062 0.90625,2.953125 0,1.292969 -0.457031,2.359375 -1.375,3.203125 -0.914063,0.835938 -2.035156,1.25 -3.359375,1.25 -1.332031,0 -2.457031,-0.414062 -3.375,-1.25 -0.925781,-0.84375 -1.390625,-1.910156 -1.390625,-3.203125 0,-1.15625 0.355469,-2.117187 1.0625,-2.890625 v -0.0625 h -0.8125 v -3.09375 H 0.25 c 1.457031,0 2.582031,0.484375 3.375,1.453125 0.789062,0.96875 1.1875,2.246094 1.1875,3.828125 0,2.574219 -0.871094,4.234375 -2.609375,4.984375 z M -6,-4.296875 c 0.398438,0.40625 0.90625,0.609375 1.53125,0.609375 0.617188,0 1.121094,-0.191406 1.515625,-0.578125 0.386719,-0.382813 0.578125,-0.894531 0.578125,-1.53125 0,-0.601563 -0.195312,-1.097656 -0.59375,-1.484375 -0.394531,-0.394531 -0.898438,-0.59375 -1.515625,-0.59375 -0.613281,0 -1.117187,0.203125 -1.515625,0.609375 -0.394531,0.398437 -0.59375,0.886719 -0.59375,1.46875 0,0.59375 0.199219,1.09375 0.59375,1.5 z m 0,0"
           id="path34" />
      </g>
    </g>
  </g>
  <g
     fill="#524d4e"
     fill-opacity="1"
     id="g40"
     transform="rotate(90,130.63061,127.29036)">
    <g
       transform="translate(20.307805,148.98316)"
       id="g39">
      <g
         id="g38">
        <path
           d="m -4.0625,-10.125 v 6.5 c 0.636719,0 1.105469,-0.203125 1.40625,-0.609375 0.304688,-0.40625 0.453125,-0.847656 0.453125,-1.328125 0,-0.5 -0.066406,-0.894531 -0.203125,-1.1875 -0.132812,-0.289062 -0.398438,-0.625 -0.796875,-1 l 1.125,-2.25 c 1.5625,0.9375 2.34375,2.492188 2.34375,4.65625 0,1.355469 -0.460937,2.515625 -1.390625,3.484375 -0.925781,0.96875 -2.039062,1.453125 -3.34375,1.453125 -1.3125,0 -2.429688,-0.484375 -3.359375,-1.453125 -0.9375,-0.96875 -1.40625,-2.128906 -1.40625,-3.484375 0,-1.414062 0.414063,-2.570312 1.234375,-3.46875 0.824219,-0.894531 1.996094,-1.34375 3.515625,-1.34375 0.210937,0 0.351563,0.01172 0.421875,0.03125 z m -1.71875,6.421875 V -7.125 c -0.457031,0.074219 -0.8125,0.261719 -1.0625,0.5625 -0.257812,0.292969 -0.390625,0.671875 -0.390625,1.140625 0,0.511719 0.136719,0.917969 0.40625,1.21875 0.273437,0.304687 0.621094,0.46875 1.046875,0.5 z m 0,0"
           id="path37" />
      </g>
    </g>
  </g>
  <g
     fill="#524d4e"
     fill-opacity="1"
     id="g43"
     transform="rotate(90,130.63061,127.29036)">
    <g
       transform="translate(20.307805,138.43277)"
       id="g42">
      <g
         id="g41" />
    </g>
  </g>
  <g
     fill="#524d4e"
     fill-opacity="1"
     id="g46"
     transform="rotate(90,130.63061,127.29036)">
    <g
       transform="translate(20.307805,133.65623)"
       id="g45">
      <g
         id="g44">
        <path
           d="M -14.4375,-8.375 0,-14.203125 v 3.53125 l -2.890625,1.0625 v 5.5 L 0,-3.046875 v 3.53125 L -14.4375,-5.34375 Z m 8.65625,-0.109375 -4.1875,1.609375 v 0.03125 l 4.1875,1.609375 z m 0,0"
           id="path43" />
      </g>
    </g>
  </g>
  <g
     fill="#524d4e"
     fill-opacity="1"
     id="g49"
     transform="rotate(90,130.63061,127.29036)">
    <g
       transform="translate(20.307805,119.93897)"
       id="g48">
      <g
         id="g47">
        <path
           d="m -9.234375,-4.953125 c 0,-0.507813 0.058594,-1.015625 0.171875,-1.515625 0.117188,-0.507812 0.230469,-0.882812 0.34375,-1.125 l 0.171875,-0.375 2.03125,1.015625 c -0.363281,0.710937 -0.546875,1.375 -0.546875,2 0,0.355469 0.039062,0.605469 0.109375,0.75 0.074219,0.148437 0.214844,0.21875 0.421875,0.21875 0.054688,0 0.105469,-0.00391 0.15625,-0.015625 0.042969,-0.019531 0.085938,-0.046875 0.125,-0.078125 0.042969,-0.03125 0.078125,-0.0625 0.109375,-0.09375 0.023437,-0.03125 0.054687,-0.078125 0.09375,-0.140625 0.03125,-0.070312 0.058594,-0.128906 0.078125,-0.171875 0.011719,-0.039063 0.039062,-0.109375 0.078125,-0.203125 0.03125,-0.09375 0.058594,-0.160156 0.078125,-0.203125 0.011719,-0.050781 0.039062,-0.128906 0.078125,-0.234375 0.03125,-0.113281 0.054687,-0.203125 0.0625,-0.265625 0.105469,-0.363281 0.226563,-0.675781 0.359375,-0.9375 0.125,-0.269531 0.296875,-0.550781 0.515625,-0.84375 0.21875,-0.300781 0.5,-0.535156 0.84375,-0.703125 0.335937,-0.164062 0.71875,-0.25 1.15625,-0.25 2.042969,0 3.0625,1.417969 3.0625,4.25 0,0.648438 -0.101563,1.261719 -0.296875,1.84375 -0.195312,0.574219 -0.394531,0.992188 -0.59375,1.25 l -0.3125,0.375 -2.125,-1.25 c 0.085938,-0.09375 0.183594,-0.210938 0.296875,-0.359375 0.105469,-0.15625 0.257813,-0.429687 0.453125,-0.828125 0.1875,-0.40625 0.28125,-0.753906 0.28125,-1.046875 0,-0.632813 -0.210938,-0.953125 -0.640625,-0.953125 -0.195313,0 -0.351563,0.085938 -0.46875,0.25 -0.113281,0.15625 -0.238281,0.433594 -0.375,0.828125 -0.144531,0.386719 -0.273437,0.6875 -0.390625,0.90625 -0.289062,0.5625 -0.617188,1.011719 -0.984375,1.34375 -0.363281,0.324219 -0.851563,0.484375 -1.46875,0.484375 -0.90625,0 -1.609375,-0.351562 -2.109375,-1.0625 -0.507812,-0.707031 -0.765625,-1.660156 -0.765625,-2.859375 z m 0,0"
           id="path46" />
      </g>
    </g>
  </g>
  <g
     fill="#524d4e"
     fill-opacity="1"
     id="g52"
     transform="rotate(90,130.63061,127.29036)">
    <g
       transform="translate(20.307805,111.3307)"
       id="g51">
      <g
         id="g50">
        <path
           d="m -9.234375,-4.953125 c 0,-0.507813 0.058594,-1.015625 0.171875,-1.515625 0.117188,-0.507812 0.230469,-0.882812 0.34375,-1.125 l 0.171875,-0.375 2.03125,1.015625 c -0.363281,0.710937 -0.546875,1.375 -0.546875,2 0,0.355469 0.039062,0.605469 0.109375,0.75 0.074219,0.148437 0.214844,0.21875 0.421875,0.21875 0.054688,0 0.105469,-0.00391 0.15625,-0.015625 0.042969,-0.019531 0.085938,-0.046875 0.125,-0.078125 0.042969,-0.03125 0.078125,-0.0625 0.109375,-0.09375 0.023437,-0.03125 0.054687,-0.078125 0.09375,-0.140625 0.03125,-0.070312 0.058594,-0.128906 0.078125,-0.171875 0.011719,-0.039063 0.039062,-0.109375 0.078125,-0.203125 0.03125,-0.09375 0.058594,-0.160156 0.078125,-0.203125 0.011719,-0.050781 0.039062,-0.128906 0.078125,-0.234375 0.03125,-0.113281 0.054687,-0.203125 0.0625,-0.265625 0.105469,-0.363281 0.226563,-0.675781 0.359375,-0.9375 0.125,-0.269531 0.296875,-0.550781 0.515625,-0.84375 0.21875,-0.300781 0.5,-0.535156 0.84375,-0.703125 0.335937,-0.164062 0.71875,-0.25 1.15625,-0.25 2.042969,0 3.0625,1.417969 3.0625,4.25 0,0.648438 -0.101563,1.261719 -0.296875,1.84375 -0.195312,0.574219 -0.394531,0.992188 -0.59375,1.25 l -0.3125,0.375 -2.125,-1.25 c 0.085938,-0.09375 0.183594,-0.210938 0.296875,-0.359375 0.105469,-0.15625 0.257813,-0.429687 0.453125,-0.828125 0.1875,-0.40625 0.28125,-0.753906 0.28125,-1.046875 0,-0.632813 -0.210938,-0.953125 -0.640625,-0.953125 -0.195313,0 -0.351563,0.085938 -0.46875,0.25 -0.113281,0.15625 -0.238281,0.433594 -0.375,0.828125 -0.144531,0.386719 -0.273437,0.6875 -0.390625,0.90625 -0.289062,0.5625 -0.617188,1.011719 -0.984375,1.34375 -0.363281,0.324219 -0.851563,0.484375 -1.46875,0.484375 -0.90625,0 -1.609375,-0.351562 -2.109375,-1.0625 -0.507812,-0.707031 -0.765625,-1.660156 -0.765625,-2.859375 z m 0,0"
           id="path49" />
      </g>
    </g>
  </g>
  <g
     fill="#524d4e"
     fill-opacity="1"
     id="g55"
     transform="rotate(90,130.63061,127.29036)">
    <g
       transform="translate(20.307805,102.72242)"
       id="g54">
      <g
         id="g53">
        <path
           d="m -1.0625,-1.890625 c -0.882812,0.992187 -2.019531,1.484375 -3.40625,1.484375 -1.394531,0 -2.535156,-0.515625 -3.421875,-1.546875 -0.894531,-1.039063 -1.34375,-2.328125 -1.34375,-3.859375 0,-1.5 0.449219,-2.765625 1.34375,-3.796875 0.898437,-1.039063 2.03125,-1.5625 3.40625,-1.5625 1.375,0 2.511719,0.507813 3.40625,1.515625 0.898437,1.011719 1.34375,2.292969 1.34375,3.84375 0,1.617188 -0.441406,2.921875 -1.328125,3.921875 z M -6,-4.296875 c 0.398438,0.40625 0.90625,0.609375 1.53125,0.609375 0.617188,0 1.121094,-0.191406 1.515625,-0.578125 0.386719,-0.382813 0.578125,-0.894531 0.578125,-1.53125 0,-0.601563 -0.195312,-1.097656 -0.59375,-1.484375 -0.394531,-0.394531 -0.898438,-0.59375 -1.515625,-0.59375 -0.613281,0 -1.117187,0.203125 -1.515625,0.609375 -0.394531,0.398437 -0.59375,0.886719 -0.59375,1.46875 0,0.59375 0.199219,1.09375 0.59375,1.5 z m 0,0"
           id="path52" />
      </g>
    </g>
  </g>
  <g
     fill="#524d4e"
     fill-opacity="1"
     id="g58"
     transform="rotate(90,130.63061,127.29036)">
    <g
       transform="translate(20.307805,91.157239)"
       id="g57">
      <g
         id="g56">
        <path
           d="m -6.703125,-5.828125 c 0,0.585937 0.21875,1.089844 0.65625,1.515625 0.429687,0.417969 0.945313,0.625 1.546875,0.625 0.625,0 1.152344,-0.207031 1.578125,-0.625 0.429687,-0.425781 0.640625,-0.929688 0.640625,-1.515625 0,-0.28125 -0.03125,-0.546875 -0.09375,-0.796875 -0.070312,-0.25 -0.144531,-0.429688 -0.21875,-0.546875 L -2.6875,-7.328125 -0.546875,-8.375 c 0.0625,0.074219 0.140625,0.183594 0.234375,0.328125 0.085938,0.148437 0.199219,0.480469 0.34375,1 0.15625,0.523437 0.234375,1.078125 0.234375,1.671875 0,1.324219 -0.460937,2.484375 -1.390625,3.484375 -0.925781,0.992187 -2.039062,1.484375 -3.34375,1.484375 -1.300781,0 -2.421875,-0.492188 -3.359375,-1.484375 -0.9375,-1 -1.40625,-2.160156 -1.40625,-3.484375 0,-0.59375 0.074219,-1.140625 0.21875,-1.640625 0.136719,-0.5 0.273437,-0.851563 0.40625,-1.0625 L -8.40625,-8.375 l 2.125,1.046875 c -0.28125,0.386719 -0.421875,0.886719 -0.421875,1.5 z m 0,0"
           id="path55" />
      </g>
    </g>
  </g>
  <g
     fill="#524d4e"
     fill-opacity="1"
     id="g61"
     transform="rotate(90,130.63061,127.29036)">
    <g
       transform="translate(20.307805,82.566456)"
       id="g60">
      <g
         id="g59">
        <path
           d="m -13.984375,-1.34375 c -0.363281,-0.363281 -0.546875,-0.796875 -0.546875,-1.296875 0,-0.5 0.183594,-0.929687 0.546875,-1.296875 0.367187,-0.363281 0.796875,-0.546875 1.296875,-0.546875 0.5,0 0.933594,0.183594 1.296875,0.546875 0.367187,0.367188 0.546875,0.796875 0.546875,1.296875 0,0.5 -0.179688,0.933594 -0.546875,1.296875 -0.363281,0.355469 -0.796875,0.53125 -1.296875,0.53125 -0.5,0 -0.929688,-0.175781 -1.296875,-0.53125 z m 5,0.296875 H 0 v -3.09375 h -8.984375 z m 0,0"
           id="path58" />
      </g>
    </g>
  </g>
  <g
     fill="#524d4e"
     fill-opacity="1"
     id="g64"
     transform="rotate(90,130.63061,127.29036)">
    <g
       transform="translate(20.307805,77.282515)"
       id="g63">
      <g
         id="g62">
        <path
           d="m -1.109375,-1.65625 c -0.914063,0.835938 -2.035156,1.25 -3.359375,1.25 -1.332031,0 -2.457031,-0.414062 -3.375,-1.25 -0.925781,-0.84375 -1.390625,-1.910156 -1.390625,-3.203125 0,-1.195313 0.371094,-2.179687 1.109375,-2.953125 h -0.859375 v -3.09375 H 0 v 3.0625 h -1.015625 v 0.03125 c 0.855469,0.773438 1.28125,1.757812 1.28125,2.953125 0,1.292969 -0.457031,2.359375 -1.375,3.203125 z M -6,-4.296875 c 0.398438,0.40625 0.90625,0.609375 1.53125,0.609375 0.617188,0 1.121094,-0.191406 1.515625,-0.578125 0.386719,-0.382813 0.578125,-0.894531 0.578125,-1.53125 0,-0.601563 -0.195312,-1.097656 -0.59375,-1.484375 -0.394531,-0.394531 -0.898438,-0.59375 -1.515625,-0.59375 -0.613281,0 -1.117187,0.203125 -1.515625,0.609375 -0.394531,0.398437 -0.59375,0.886719 -0.59375,1.46875 0,0.59375 0.199219,1.09375 0.59375,1.5 z m 0,0"
           id="path61" />
      </g>
    </g>
  </g>
  <g
     fill="#524d4e"
     fill-opacity="1"
     id="g67"
     transform="rotate(90,130.63061,127.29036)">
    <g
       transform="translate(20.307805,65.332394)"
       id="g66">
      <g
         id="g65">
        <path
           d="M -8.984375,-1.578125 H -12.3125 v -3.09375 h 3.328125 V -6.5625 h 2.375 v 1.890625 h 2.84375 c 0.835937,0 1.25,-0.234375 1.25,-0.703125 0,-0.113281 -0.019531,-0.234375 -0.0625,-0.359375 -0.050781,-0.132813 -0.101563,-0.234375 -0.15625,-0.296875 l -0.0625,-0.109375 2.5,-0.765625 c 0.375,0.65625 0.5625,1.414062 0.5625,2.265625 0,0.585937 -0.101563,1.089844 -0.296875,1.515625 -0.207031,0.417969 -0.484375,0.734375 -0.828125,0.953125 -0.34375,0.210937 -0.703125,0.359375 -1.078125,0.453125 -0.382812,0.09375 -0.796875,0.140625 -1.234375,0.140625 h -3.4375 v 1.296875 h -2.375 z m 0,0"
           id="path64" />
      </g>
    </g>
  </g>
  <g
     fill="#524d4e"
     fill-opacity="1"
     id="g70"
     transform="rotate(90,130.63061,127.29036)">
    <g
       transform="translate(20.307805,58.421292)"
       id="g69">
      <g
         id="g68">
        <path
           d="m -13.984375,-1.34375 c -0.363281,-0.363281 -0.546875,-0.796875 -0.546875,-1.296875 0,-0.5 0.183594,-0.929687 0.546875,-1.296875 0.367187,-0.363281 0.796875,-0.546875 1.296875,-0.546875 0.5,0 0.933594,0.183594 1.296875,0.546875 0.367187,0.367188 0.546875,0.796875 0.546875,1.296875 0,0.5 -0.179688,0.933594 -0.546875,1.296875 -0.363281,0.355469 -0.796875,0.53125 -1.296875,0.53125 -0.5,0 -0.929688,-0.175781 -1.296875,-0.53125 z m 5,0.296875 H 0 v -3.09375 h -8.984375 z m 0,0"
           id="path67" />
      </g>
    </g>
  </g>
  <g
     fill="#524d4e"
     fill-opacity="1"
     id="g73"
     transform="rotate(90,130.63061,127.29036)">
    <g
       transform="translate(20.307805,53.137363)"
       id="g72">
      <g
         id="g71">
        <path
           d="m -1.0625,-1.890625 c -0.882812,0.992187 -2.019531,1.484375 -3.40625,1.484375 -1.394531,0 -2.535156,-0.515625 -3.421875,-1.546875 -0.894531,-1.039063 -1.34375,-2.328125 -1.34375,-3.859375 0,-1.5 0.449219,-2.765625 1.34375,-3.796875 0.898437,-1.039063 2.03125,-1.5625 3.40625,-1.5625 1.375,0 2.511719,0.507813 3.40625,1.515625 0.898437,1.011719 1.34375,2.292969 1.34375,3.84375 0,1.617188 -0.441406,2.921875 -1.328125,3.921875 z M -6,-4.296875 c 0.398438,0.40625 0.90625,0.609375 1.53125,0.609375 0.617188,0 1.121094,-0.191406 1.515625,-0.578125 0.386719,-0.382813 0.578125,-0.894531 0.578125,-1.53125 0,-0.601563 -0.195312,-1.097656 -0.59375,-1.484375 -0.394531,-0.394531 -0.898438,-0.59375 -1.515625,-0.59375 -0.613281,0 -1.117187,0.203125 -1.515625,0.609375 -0.394531,0.398437 -0.59375,0.886719 -0.59375,1.46875 0,0.59375 0.199219,1.09375 0.59375,1.5 z m 0,0"
           id="path70" />
      </g>
    </g>
  </g>
  <g
     fill="#524d4e"
     fill-opacity="1"
     id="g76"
     transform="rotate(90,130.63061,127.29036)">
    <g
       transform="translate(20.307805,41.572183)"
       id="g75">
      <g
         id="g74">
        <path
           d="m 0,-1.046875 h -8.984375 v -3.09375 H -8.03125 V -4.1875 c -0.800781,-0.800781 -1.203125,-1.65625 -1.203125,-2.5625 0,-0.445312 0.058594,-0.890625 0.171875,-1.328125 0.117188,-0.4375 0.296875,-0.851563 0.546875,-1.25 0.242187,-0.40625 0.585937,-0.734375 1.03125,-0.984375 0.449219,-0.25 0.96875,-0.375 1.5625,-0.375 H 0 v 3.09375 h -5.078125 c -0.46875,0 -0.875,0.152344 -1.21875,0.453125 -0.351563,0.292969 -0.53125,0.679687 -0.53125,1.15625 0,0.46875 0.183594,0.898437 0.546875,1.28125 0.367188,0.375 0.765625,0.5625 1.203125,0.5625 H 0 Z m 0,0"
           id="path73" />
      </g>
    </g>
  </g>
  <g
     clip-path="url(#01ea780111)"
     id="g77"
     transform="rotate(90,130.63061,127.29036)">
    <path
       fill="#524d4e"
       d="M 17.1875,8.019531 C 16.652344,8.382812 11.058594,10.898438 10.726562,10.9375 10.605469,10.136719 9.949219,9.628906 9.269531,9.628906 8.730469,9.625 8.558594,10.144531 8.800781,10.367188 c 0.160157,0.148437 0.421875,0.05469 0.433594,-0.09766 0.25,0 0.320313,0.128907 0.507813,0.316407 0.179687,0.183593 -0.046876,0.824218 -0.148438,1.058593 -0.15625,0.375 -0.375,0.714844 -0.644531,1.164063 -0.3125,0.527344 -0.40625,0.761718 -0.496094,1.023437 -0.277344,0.964844 0.00781,1.386719 0.167969,1.675781 l 0.00391,-0.0039 v 0.0078 c 0.140625,0.21875 0.222656,0.316406 0.269531,0.511719 0,0 -0.03125,0.08203 -0.03125,0.08203 -0.023437,0.05859 -0.417969,0.08594 -0.589843,0.0039 -0.316407,-0.144531 -0.363282,-0.625 -0.925782,-0.714844 -0.441406,-0.07422 -0.761718,0.175781 -1.0625,0.5 0,0 -0.00391,-0.0039 -0.00391,-0.0039 0.00391,0.0039 -0.105469,0.113281 -0.117188,0.121094 -0.050781,0.05469 -0.121093,0.09375 -0.183593,0.136719 -0.234375,0.160156 -0.175781,0.328124 -0.179688,0.300781 0.027344,0.289062 0.296875,0.335937 0.390625,0.441406 L 6.296875,17.003906 6.300781,17 c 0.136719,0.144531 0.34375,0.386719 0.703125,0.46875 0.40625,0.09766 0.699219,-0.07031 0.957032,-0.390625 0.175781,-0.21875 0.269531,-0.410156 0.761718,-0.347656 0.210938,0.02734 0.195313,0.08594 0.148438,0.210937 -0.234375,0.613282 -1.171875,1.003906 0.152344,3.257813 l 0.00391,-0.0039 c 0.050781,0.08594 0.050781,0.08984 0.113281,0.1875 l 0.00781,0.0039 c 0.210937,0.378906 0.464843,0.761719 0.59375,1.273437 0.039062,0.148438 0.097656,0.308594 0.066406,0.460938 -0.0625,0.273437 -0.378906,0.503906 -0.574219,0.484375 0.00391,0 -0.042969,-0.08594 -0.050781,-0.09375 -0.171875,-0.183594 -0.5625,-0.02344 -0.480469,0.34375 0.179687,0.800781 1.90625,0.339843 2.011719,-0.914063 0.175781,0.01953 4.140625,1.675782 6.417968,2.898438 0.101563,0.03906 0.136719,0.09375 0.234376,0.0625 0.132812,-0.04687 0.253906,-0.25 0.300781,-0.378906 0,-0.01953 0,-0.01953 0,-0.01953 0.78125,-0.203125 1.492187,-0.792968 1.84375,-1.320312 0.484375,-0.726563 0.480469,-1.800782 0.398437,-2.269532 -0.148437,-0.875 -0.90625,-2.085937 -1.917968,-2.425781 -0.136719,-0.04297 -0.140626,-0.04687 -0.289063,-0.101562 0,-0.226563 -0.257813,-0.328125 -0.300781,-0.359375 -0.152344,-0.01172 -0.253906,0.04297 -0.300782,0.195312 -0.984374,0.441406 -0.753906,0.535156 -3.167968,1.492188 -2.757813,1.089844 -2.460938,0.773437 -3.347656,1.242187 -0.02344,-0.03906 -0.04297,-0.07813 -0.06641,-0.113281 0.0039,0.0039 0.01563,0.0039 0.01953,0.0039 -0.09375,-0.175781 -0.433593,-0.476562 -0.699218,-0.953125 H 9.828125 C 9.730469,19.644531 9.722656,19.609375 9.6875,19.542969 9.636719,19.214844 9.410156,18.265625 10.714844,17.453125 l 0.01172,0.0039 c 0.136719,-0.07031 0.671876,-0.28125 0.796876,-0.316406 0.03906,0.347656 0.371093,0.363281 0.703124,0.382813 l -0.0039,-0.01172 c 0.09766,0 0.1875,-0.01172 0.28125,-0.03516 v 0.01172 c 0.05078,-0.02344 0.03125,-0.01953 0.08984,-0.03125 l -0.0039,-0.01172 c 0.125,-0.0625 0.242187,-0.148437 0.351562,-0.242187 l 0.09375,-0.02734 c 0.199219,-0.05859 0.324219,0.183594 0.683594,0.214844 0.371094,0.03125 0.519531,-0.140625 0.714844,-0.125 0.261718,0.01953 0.339844,0.128906 0.644531,0.02344 h 0.0039 c 0.05859,-0.02734 0.125,-0.05078 0.183594,-0.07422 0.07422,-0.03125 0.117187,-0.07813 0.207031,-0.07813 0.06641,-0.0039 0.132813,0.02734 0.199219,0.04687 0.96875,0.292968 1.296875,-0.425782 3.726563,0.886718 h -0.0039 c 0.492188,0.257813 0.675781,0.410157 1.347657,0.199219 0.609374,-0.1875 0.605468,0.02734 1.125,0.628907 l 0.0039,-0.0078 c 0.03906,0.03906 1.109375,1 1.140625,1.027344 0.04297,0.03906 0.214843,-0.167969 0.230469,-0.195313 0.117187,-0.183594 0.109374,-0.289062 0.3125,-0.84375 0.699218,-1.949218 0.496093,-4.054687 -0.261719,-5.664062 -0.07422,-0.148438 -0.167969,-0.257813 -0.335938,-0.25 0,0 -0.105469,0.132812 -0.117187,0.144531 -0.0078,0.0039 -0.496094,0.441406 -0.503906,0.441406 -0.515626,0.445313 -0.429688,0.390625 -0.613282,0.589844 l 0.0039,0.0039 c -0.550781,0.695313 -0.480468,0.582031 -1.320312,0.371094 l 0.0078,0.01172 c -0.371093,-0.05469 -0.542968,0.04297 -0.851562,0.183594 l 0.0078,0.0039 c -0.160156,0.08594 -0.199218,0.113281 -0.394531,0.207031 -0.945312,0.449219 -1.273437,0.558594 -1.808593,0.683594 0,0 -0.128907,0.01563 -0.195313,0.01953 v 0.0039 c -0.226563,0.01172 -0.332031,0.0078 -0.527344,-0.0039 l -0.0039,0.0039 c -0.363281,-0.01563 -0.554687,-0.02344 -0.851563,0.03516 v -0.0039 c -0.01172,0.0039 0,0.0039 -0.07422,0.01563 v 0.0078 c -0.117188,0.03125 -0.21875,0.06641 -0.316406,0.04297 -0.07031,-0.01562 -0.199219,-0.05469 -0.242188,-0.113281 -0.1875,-0.08203 -0.363281,-0.08594 -0.554688,-0.03516 -0.425781,0.113281 -0.648437,-0.308594 -1.285156,0.05078 -0.1875,0.105469 -0.1875,0.08984 -0.375,0.0625 -0.01953,-0.02734 -0.03125,-0.04297 -0.05859,-0.05859 l 0.0039,-0.0039 -0.222657,-0.15625 c -0.1875,-0.132812 -1.050781,-0.246094 -1.140624,0.253906 l 0.01172,0.01172 v 0.0039 c -0.148437,-0.04688 -0.652344,-0.246094 -0.699218,-0.265626 h -0.0039 C 10.042969,15.066406 9.679688,14.460938 9.644531,13.910156 9.632812,13.773438 9.628906,13.761719 9.664062,13.476562 H 9.65625 l 0.00781,-0.0039 c 0.074219,-0.308594 0.128907,-0.40625 0.28125,-0.683594 h 0.00781 c 0.105469,-0.160156 0.082031,-0.125 0.539063,-0.6875 l -0.02344,0.01172 c 0.04297,-0.0625 0.07813,-0.128906 0.113281,-0.195312 0.808594,0.476562 0.96875,0.234375 3.777344,1.417969 2.25,0.945312 1.707031,0.851562 2.742187,1.320312 0.04688,0.152344 0.148438,0.207031 0.289063,0.195312 0.04687,-0.02734 0.308594,-0.128906 0.308594,-0.359374 0.652343,-0.242188 0.449219,-0.109376 0.777343,-0.332032 0.652344,-0.445312 1.136719,-1.132812 1.347657,-1.828125 C 20.082031,11.480469 19.925781,10.402344 19.625,9.890625 19.214844,9.191406 18.527344,8.605469 17.667969,8.371094 17.652344,8.269531 17.492188,7.988281 17.335938,7.96875 17.300781,7.964844 17.246094,7.972656 17.1875,8.019531 Z m -4.121094,12.410157 c 1.445313,-0.457032 3.839844,-1.558594 4.019532,-1.683594 0.01562,0.261718 0.02344,0.273437 0.0039,0.90625 -0.07031,2.085937 0.09766,0.609375 -0.03516,4.617187 -0.503907,-0.148437 -0.898438,-0.460937 -1.378907,-0.6875 -0.597656,-0.28125 -1.214843,-0.53125 -1.816406,-0.800781 -1.097656,-0.492188 -1.980469,-0.914062 -3.113281,-1.179688 -0.0039,-0.08984 -0.0078,-0.179687 -0.03125,-0.292968 0.226562,-0.1875 2.074218,-0.785156 2.351562,-0.878906 z m -3.8125,-0.976563 c -0.011718,-0.01172 -0.023437,-0.01953 -0.039062,-0.02734 0.011718,0 0.027344,0.01172 0.039062,0.02734 z M 9.90625,17.804688 c -0.00391,0 -0.00391,0.0039 -0.00781,0.0039 0,-0.0039 0,-0.0039 0,-0.0078 0,0 0.00391,0 0.00781,0.0039 z m 0.386719,-0.980469 c -0.0039,0.0039 -0.0078,0.0039 -0.01172,0.0039 0,-0.0039 0,-0.0039 0,-0.0039 0.0039,0 0.0078,0 0.01172,0 z M 9.71875,14.863281 c -0.00391,0 -0.00391,0 -0.00781,0 0.00391,-0.0078 0.00391,-0.01172 0.00781,-0.01563 z m 7.386719,-4.648437 c 0.04297,0.820312 -0.03906,1.648437 -0.03125,2.179687 -0.0078,0.742188 0.05469,1.121094 0.0078,1.738281 -0.02344,-0.02734 -0.0078,-0.01172 -0.03516,-0.04297 -0.136719,-0.05078 -0.171875,-0.03906 -0.472656,-0.199219 -0.425781,-0.242187 -2.285157,-1.03125 -3.210938,-1.347656 -2.542969,-0.863281 -2.402343,-0.777344 -2.660156,-0.976563 0.02344,-0.09375 0.03516,-0.191406 0.04297,-0.289062 1.246094,-0.296875 1.984375,-0.6875 4.292968,-1.695313 1.394532,-0.617187 1.4375,-0.808593 2.023438,-0.976562 0,0 -0.0039,0.601562 0.04297,1.609375 z m 0,0"
       fill-opacity="1"
       fill-rule="nonzero"
       id="path76" />
  </g>
</svg>
