<?xml version="1.0" encoding="UTF-8" standalone="no"?>
<!-- Created with Inkscape (http://www.inkscape.org/) -->

<svg
   width="3mm"
   height="3mm"
   viewBox="0 0 3 3"
   version="1.1"
   id="svg1"
   xml:space="preserve"
   inkscape:version="1.4.2 (f4327f4, 2025-05-13)"
   sodipodi:docname="external.svg"
   xmlns:inkscape="http://www.inkscape.org/namespaces/inkscape"
   xmlns:sodipodi="http://sodipodi.sourceforge.net/DTD/sodipodi-0.dtd"
   xmlns="http://www.w3.org/2000/svg"
   xmlns:svg="http://www.w3.org/2000/svg"><sodipodi:namedview
     id="namedview1"
     pagecolor="#ffffff"
     bordercolor="#000000"
     borderopacity="0.25"
     inkscape:showpageshadow="2"
     inkscape:pageopacity="0.0"
     inkscape:pagecheckerboard="0"
     inkscape:deskcolor="#d1d1d1"
     inkscape:document-units="mm"
     inkscape:zoom="29.977292"
     inkscape:cx="9.4071206"
     inkscape:cy="12.325997"
     inkscape:window-width="2560"
     inkscape:window-height="1351"
     inkscape:window-x="-9"
     inkscape:window-y="-9"
     inkscape:window-maximized="1"
     inkscape:current-layer="layer1"
     showgrid="false" /><defs
     id="defs1" /><g
     inkscape:label="Layer 1"
     inkscape:groupmode="layer"
     id="layer1"><g
       id="g18"
       transform="matrix(0.23942764,0,0,0.23942764,-0.94255059,-0.86890079)"><path
         style="fill:#161616"
         d="M 9.382266,15.935187 5.763077,15.95322 5.4990253,15.871512 5.2349736,15.789804 4.9162789,15.59284 4.5975842,15.395876 4.3599811,14.980933 4.122378,14.56599 V 10.802033 7.0380766 L 4.3239966,6.6520298 4.5256152,6.265983 4.9352259,5.9764478 5.3448366,5.6869127 7.5324468,5.6567561 9.720057,5.6265994 9.9372084,5.8294112 10.15436,6.032223 v 0.23376 0.23376 L 9.9431379,6.696526 9.7319161,6.8933091 H 7.7233686 5.7148212 L 5.5217977,7.0863325 5.3287743,7.2793559 v 3.4788081 3.478809 l 0.2368924,0.236892 0.2368924,0.236892 h 3.4788083 3.4788086 l 0.193023,-0.193023 0.193024,-0.193023 v -2.026746 -2.026746 l 0.193023,-0.193024 0.193023,-0.193023 h 0.23752 0.23752 l 0.202812,0.217151 0.202811,0.217152 -0.03016,2.18761 -0.03016,2.18761 -0.289535,0.409611 -0.289535,0.40961 -0.386047,0.201619 -0.386047,0.201619 z M 8.9349099,11.718894 H 8.794422 L 8.5575296,11.482002 8.3206373,11.24511 v -0.134674 -0.134674 l 0.2796577,-0.3764 0.2796577,-0.376399 2.5191823,-2.5086084 2.519181,-2.5086083 v -0.07308 -0.07308 H 12.82339 11.728463 L 11.556674,4.8697609 11.384884,4.6799355 V 4.4268414 4.173747 l 0.160068,-0.1602783 0.160067,-0.1602784 2.022488,-0.029537 2.022488,-0.029537 0.242301,0.2423011 0.242301,0.2423011 -0.0014,1.9104931 -0.0014,1.9104931 -0.121418,0.2412793 -0.121418,0.2412792 -0.32049,0.030916 -0.32049,0.030916 -0.18404,-0.1665129 -0.183996,-0.1665139 V 7.2161419 6.1212154 h -0.07311 -0.07311 L 12.421656,8.5436199 10.009587,10.966024 9.54249,11.342459 9.0753929,11.718894 Z"
         id="path18" /></g></g></svg>
